<svg width="48" height="48" viewBox="0 0 48 48" fill="none" xmlns="http://www.w3.org/2000/svg">
<circle cx="24" cy="24" r="22" fill="#313131" stroke="url(#paint0_linear)" stroke-width="4"/>
<path d="M26.944 24.08C28.836 23.904 29.606 22.782 29.606 20.604C29.606 17.48 28.198 16.644 24.238 16.644C21.686 16.644 20.256 16.666 18.54 16.82V32C20.454 32.154 22.038 32.176 24.942 32.176C28.572 32.176 30.09 31.34 30.09 28.216C30.09 25.796 29.276 24.366 26.944 24.168V24.08ZM26.394 21.066C26.394 22.628 25.888 23.024 24.26 23.024H21.818V19.174H24.084C25.844 19.174 26.394 19.526 26.394 21.066ZM21.818 29.646V25.246H24.282C26.174 25.268 26.724 25.73 26.724 27.578C26.724 29.272 26.196 29.646 24.37 29.646H21.818Z" fill="white"/>
<defs>
<linearGradient id="paint0_linear" x1="16.2642" y1="4" x2="40.9811" y2="44" gradientUnits="userSpaceOnUse">
<stop stop-color="#4D4D4D"/>
<stop offset="1" stop-color="#292929"/>
</linearGradient>
</defs>
</svg>
