<svg width="54" height="50" viewBox="0 0 54 50" fill="none" xmlns="http://www.w3.org/2000/svg">
<path d="M46.6 24.4151L43.9 27.0132L43.9 21.817L46.6 24.4151Z" fill="#9F9F9F"/>
<path fill-rule="evenodd" clip-rule="evenodd" d="M26.9189 23.7027L36 14.3545L36 1L17.8378 1L17.8378 14.3545L26.9189 23.7027ZM27.0811 26.2973L18 35.6455V49H36.1622V35.6455L27.0811 26.2973ZM39.8347 34.0811L30.4865 25L39.8347 15.9189L53.1892 15.9189L53.1892 34.0811H39.8347ZM23.7027 25L14.3545 15.9189L1 15.9189V34.0811H14.3545L23.7027 25Z" fill="url(#paint0_linear)"/>
<path d="M36 14.3545L36.538 14.8771C36.6739 14.7371 36.75 14.5497 36.75 14.3545L36 14.3545ZM26.9189 23.7027L26.381 24.2253C26.5222 24.3707 26.7162 24.4527 26.9189 24.4527C27.1216 24.4527 27.3157 24.3707 27.4569 24.2253L26.9189 23.7027ZM36 1L36.75 1C36.75 0.80109 36.671 0.610324 36.5303 0.469672C36.3897 0.32902 36.1989 0.250002 36 0.250002L36 1ZM17.8378 1L17.8378 0.25C17.4236 0.25 17.0878 0.585786 17.0878 1L17.8378 1ZM17.8378 14.3545L17.0878 14.3545C17.0878 14.5497 17.1639 14.7371 17.2999 14.8771L17.8378 14.3545ZM18 35.6455L17.462 35.1229C17.3261 35.2629 17.25 35.4503 17.25 35.6455H18ZM27.0811 26.2973L27.619 25.7747C27.4778 25.6294 27.2838 25.5473 27.0811 25.5473C26.8784 25.5473 26.6843 25.6294 26.5431 25.7747L27.0811 26.2973ZM18 49H17.25C17.25 49.4142 17.5858 49.75 18 49.75V49ZM36.1622 49V49.75C36.5764 49.75 36.9122 49.4142 36.9122 49H36.1622ZM36.1622 35.6455H36.9122C36.9122 35.4503 36.8361 35.2629 36.7001 35.1229L36.1622 35.6455ZM30.4865 25L29.9639 24.4621C29.8185 24.6033 29.7365 24.7973 29.7365 25C29.7365 25.2027 29.8185 25.3968 29.9639 25.538L30.4865 25ZM39.8347 34.0811L39.3121 34.6191C39.452 34.755 39.6395 34.8311 39.8347 34.8311V34.0811ZM39.8347 15.9189L39.8347 15.1689C39.6395 15.1689 39.452 15.245 39.3121 15.381L39.8347 15.9189ZM53.1892 15.9189L53.9392 15.9189C53.9392 15.5047 53.6034 15.1689 53.1892 15.1689L53.1892 15.9189ZM53.1892 34.0811V34.8311C53.3881 34.8311 53.5789 34.7521 53.7195 34.6114C53.8602 34.4708 53.9392 34.28 53.9392 34.0811L53.1892 34.0811ZM14.3545 15.9189L14.8771 15.381C14.7371 15.245 14.5497 15.1689 14.3545 15.1689L14.3545 15.9189ZM23.7027 25L24.2253 25.538C24.3707 25.3967 24.4527 25.2027 24.4527 25C24.4527 24.7973 24.3707 24.6033 24.2253 24.4621L23.7027 25ZM1 15.9189L1 15.1689C0.801088 15.1689 0.610322 15.2479 0.46967 15.3886C0.329018 15.5293 0.25 15.72 0.25 15.9189H1ZM1 34.0811H0.25C0.25 34.4953 0.585786 34.8311 1 34.8311L1 34.0811ZM14.3545 34.0811V34.8311C14.5497 34.8311 14.7371 34.755 14.8771 34.6191L14.3545 34.0811ZM35.462 13.8319L26.381 23.1801L27.4569 24.2253L36.538 14.8771L35.462 13.8319ZM35.25 1L35.25 14.3545L36.75 14.3545L36.75 1L35.25 1ZM17.8378 1.75L36 1.75L36 0.250002L17.8378 0.25L17.8378 1.75ZM18.5878 14.3545L18.5878 1L17.0878 1L17.0878 14.3545L18.5878 14.3545ZM27.4569 23.1801L18.3758 13.8319L17.2999 14.8771L26.381 24.2253L27.4569 23.1801ZM18.538 36.1681L27.619 26.8199L26.5431 25.7747L17.462 35.1229L18.538 36.1681ZM18.75 49V35.6455H17.25V49H18.75ZM36.1622 48.25H18V49.75H36.1622V48.25ZM35.4122 35.6455V49H36.9122V35.6455H35.4122ZM26.5431 26.8199L35.6242 36.1681L36.7001 35.1229L27.619 25.7747L26.5431 26.8199ZM29.9639 25.538L39.3121 34.6191L40.3572 33.5431L31.0091 24.4621L29.9639 25.538ZM39.3121 15.381L29.9639 24.4621L31.0091 25.538L40.3572 16.4569L39.3121 15.381ZM53.1892 15.1689L39.8347 15.1689L39.8347 16.6689L53.1892 16.6689L53.1892 15.1689ZM53.9392 34.0811L53.9392 15.9189L52.4392 15.9189L52.4392 34.0811L53.9392 34.0811ZM39.8347 34.8311H53.1892V33.3311H39.8347V34.8311ZM13.8319 16.4569L23.1801 25.538L24.2253 24.4621L14.8771 15.381L13.8319 16.4569ZM1 16.6689L14.3545 16.6689L14.3545 15.1689L1 15.1689L1 16.6689ZM1.75 34.0811V15.9189H0.25V34.0811H1.75ZM14.3545 33.3311H1V34.8311H14.3545V33.3311ZM23.1801 24.4621L13.8319 33.5431L14.8771 34.6191L24.2253 25.538L23.1801 24.4621Z" fill="url(#paint1_linear)"/>
<path d="M27 5.00002L29.5981 7.70002H24.4019L27 5.00002Z" fill="#9F9F9F"/>
<path d="M27 44.6L24.4019 41.9L29.5981 41.9L27 44.6Z" fill="#9F9F9F"/>
<path d="M7 24.4151L9.7 21.817L9.7 27.0132L7 24.4151Z" fill="#9F9F9F"/>
<path d="M48.6 24.4151L45.9 27.0132L45.9 21.817L48.6 24.4151Z" fill="#9F9F9F"/>
<defs>
<linearGradient id="paint0_linear" x1="17.0014" y1="1" x2="45.4942" y2="51.1348" gradientUnits="userSpaceOnUse">
<stop stop-color="#4D4D4D"/>
<stop offset="1" stop-color="#292929"/>
</linearGradient>
<linearGradient id="paint1_linear" x1="17.0014" y1="1" x2="45.4942" y2="51.1348" gradientUnits="userSpaceOnUse">
<stop stop-color="#626262"/>
<stop offset="1" stop-color="#292929"/>
</linearGradient>
</defs>
</svg>
